# xmcd
#
# Track frame offsets: 
#        150
#        21283
#        44599
#        65602
#        91083
#        112886
#        136898
#        156535
#        175494
#        192480
#        208800
#        231220
#        252558
#        273456
#        295115
#
# Disc length: 4230 seconds
#
# Revision: 0
# Processed by: cddbd v1.5.2PL0 Copyright (c) Steve Scherf et al.
# Submitted via: ExactAudioCopy v0.99pb4
#
DISCID=e710840f
DTITLE=The Isley Brothers - Between The Sheets
DYEAR=1983
DGENRE=R&B
TTITLE0=Choosey Lover
TTITLE1=Touch Me
TTITLE2=I Need Your Body
TTITLE3=Between The Sheets
TTITLE4=Let's Make Love Tonight
TTITLE5=Ballad For The Fallen Soldier
TTITLE6=Slow Down Children
TTITLE7=Way Out Love
TTITLE8=Gettin' Over
TTITLE9=Rock You Good
TTITLE10=Between The Sheets (Instrumental Version)
TTITLE11=Choosey Lover (Instrumental Version)
TTITLE12=I Need Your Body (Instrumental Version)
TTITLE13=Let's Make Love Tonight (Instrumental Version)
TTITLE14=Between The Sheets (Single Version)
EXTD=
EXTT0=
EXTT1=
EXTT2=
EXTT3=
EXTT4=
EXTT5=
EXTT6=
EXTT7=
EXTT8=
EXTT9=
EXTT10=
EXTT11=
EXTT12=
EXTT13=
EXTT14=
PLAYORDER=
